<svg width="25" height="25" viewBox="0 0 25 25" fill="none" xmlns="http://www.w3.org/2000/svg">
<path d="M18.5 8.81039C18.14 8.40039 17.77 7.99039 17.38 7.60039L17.09 7.33039L17.23 7.21039C17.719 6.7906 18.0675 6.23091 18.2285 5.60683C18.3894 4.98275 18.355 4.32433 18.13 3.72039C17.8039 3.03936 17.2876 2.46732 16.6434 2.07337C15.9993 1.67942 15.2548 1.48042 14.5 1.50039V3.50039C14.8558 3.49544 15.2065 3.5855 15.5159 3.76129C15.8252 3.93707 16.0821 4.19221 16.26 4.50039C16.43 4.90039 16.26 5.34039 15.79 5.81039C15.72 5.89039 15.64 5.94039 15.57 6.01039C12.57 3.60039 9.28 2.24039 7.67 3.85039C7.50193 4.02326 7.36341 4.22259 7.26 4.44039V4.54039L7.08 5.07039L2.67 18.1704C2.50319 18.6641 2.4564 19.1904 2.5335 19.7057C2.61059 20.221 2.80937 20.7106 3.11335 21.1338C3.41733 21.5571 3.81777 21.9018 4.2815 22.1394C4.74524 22.3771 5.25892 22.5008 5.78 22.5004C6.12025 22.4973 6.45783 22.4399 6.78 22.3304L20.5 17.7804C20.6686 17.7176 20.8172 17.6105 20.93 17.4704L21.14 17.2904C22.57 15.8504 21.65 13.0804 19.73 10.3904C20.87 9.72505 22.1828 9.41515 23.5 9.50039V7.50039C21.7373 7.40341 19.9887 7.86157 18.5 8.81039ZM6.2 20.4304C5.97301 20.5055 5.7296 20.5161 5.49695 20.4609C5.2643 20.4057 5.05157 20.287 4.8825 20.1179C4.71343 19.9488 4.59467 19.7361 4.53949 19.5034C4.48431 19.2708 4.49487 19.0274 4.57 18.8004L5.93 14.7004C6.90058 16.5513 8.39196 18.0774 10.22 19.0904L6.2 20.4304ZM13.2 18.1004C11.6887 17.7002 10.3101 16.9076 9.20373 15.803C8.09738 14.6984 7.30264 13.321 6.9 11.8104L7.9 8.81039L7.96 8.90039C8.07 9.12039 8.21 9.35039 8.35 9.58039C8.49 9.81039 8.51 9.87039 8.61 10.0204C8.71 10.1704 8.94 10.5004 9.12 10.7504C9.3 11.0004 9.31 11.0304 9.42 11.1704C9.53 11.3104 9.85 11.7204 10.08 11.9904L10.37 12.3404C10.71 12.7304 11.07 13.1104 11.45 13.5004C11.83 13.8904 12.13 14.1404 12.45 14.5004L12.78 14.7804L13.56 15.4104L13.93 15.6904C14.21 15.8904 14.48 16.0904 14.76 16.2704L15.07 16.4704C15.43 16.6904 15.79 16.9004 16.14 17.0804H16.19L13.2 18.1004ZM19.71 15.8704H19.65C18.96 16.2504 16.09 15.3004 12.86 12.0604C12.52 11.7204 12.2 11.3904 11.91 11.0604L11.62 10.7104L11.09 10.0704L10.8 9.67039C10.67 9.48039 10.53 9.30039 10.41 9.12039L10.15 8.70039L9.86 8.23039C9.78 8.09039 9.72 7.96039 9.65 7.83039C9.58 7.70039 9.5 7.57039 9.44 7.43039C9.38565 7.31352 9.33889 7.19328 9.3 7.07039C9.25 6.94039 9.19 6.81039 9.15 6.69039C9.11 6.57039 9.1 6.50039 9.07 6.38039C9.04 6.26039 9.02 6.16039 9 6.06039C8.99436 5.97382 8.99436 5.88697 9 5.80039C8.99037 5.72068 8.99037 5.6401 9 5.56039L9.11 5.25039C9.47 4.89039 11.34 5.25039 13.84 7.15039C13.4164 7.3422 12.9633 7.46056 12.5 7.50039V9.50039C13.5622 9.43929 14.5928 9.11637 15.5 8.56039L15.98 9.02039C16.4 9.44039 16.79 9.87039 17.16 10.3004C16.5876 11.3355 16.3765 12.5319 16.56 13.7004L18.56 13.3104C18.5016 12.9393 18.5016 12.5614 18.56 12.1904C18.8662 12.6526 19.1369 13.1373 19.37 13.6404C19.93 14.9604 19.89 15.7004 19.71 15.8704Z" fill="#9299A9"/>
</svg>
