<svg width="21" height="19" viewBox="0 0 21 19" fill="none" xmlns="http://www.w3.org/2000/svg">
<path d="M0.5 2.5C0.5 1.96957 0.710714 1.46086 1.08579 1.08579C1.46086 0.710714 1.96957 0.5 2.5 0.5H18.5C19.0304 0.5 19.5391 0.710714 19.9142 1.08579C20.2893 1.46086 20.5 1.96957 20.5 2.5V13.5C20.5 14.0304 20.2893 14.5391 19.9142 14.9142C19.5391 15.2893 19.0304 15.5 18.5 15.5H13.914L11.207 18.207C11.0195 18.3945 10.7652 18.4998 10.5 18.4998C10.2348 18.4998 9.98053 18.3945 9.793 18.207L7.086 15.5H2.5C1.96957 15.5 1.46086 15.2893 1.08579 14.9142C0.710714 14.5391 0.5 14.0304 0.5 13.5V2.5ZM18.5 2.5H2.5V13.5H7.5C7.76519 13.5001 8.01951 13.6054 8.207 13.793L10.5 16.086L12.793 13.793C12.9805 13.6054 13.2348 13.5001 13.5 13.5H18.5V2.5Z" fill="#9299A9"/>
<path d="M12 8C12 8.39782 11.842 8.77936 11.5607 9.06066C11.2794 9.34196 10.8978 9.5 10.5 9.5C10.1022 9.5 9.72064 9.34196 9.43934 9.06066C9.15804 8.77936 9 8.39782 9 8C9 7.60218 9.15804 7.22064 9.43934 6.93934C9.72064 6.65804 10.1022 6.5 10.5 6.5C10.8978 6.5 11.2794 6.65804 11.5607 6.93934C11.842 7.22064 12 7.60218 12 8ZM16 8C16 8.39782 15.842 8.77936 15.5607 9.06066C15.2794 9.34196 14.8978 9.5 14.5 9.5C14.1022 9.5 13.7206 9.34196 13.4393 9.06066C13.158 8.77936 13 8.39782 13 8C13 7.60218 13.158 7.22064 13.4393 6.93934C13.7206 6.65804 14.1022 6.5 14.5 6.5C14.8978 6.5 15.2794 6.65804 15.5607 6.93934C15.842 7.22064 16 7.60218 16 8ZM8 8C8 8.39782 7.84196 8.77936 7.56066 9.06066C7.27936 9.34196 6.89782 9.5 6.5 9.5C6.10218 9.5 5.72064 9.34196 5.43934 9.06066C5.15804 8.77936 5 8.39782 5 8C5 7.60218 5.15804 7.22064 5.43934 6.93934C5.72064 6.65804 6.10218 6.5 6.5 6.5C6.89782 6.5 7.27936 6.65804 7.56066 6.93934C7.84196 7.22064 8 7.60218 8 8Z" fill="#9299A9"/>
</svg>
