<svg width="25" height="25" viewBox="0 0 25 25" fill="none" xmlns="http://www.w3.org/2000/svg">
<path d="M11.836 2.75324C12.019 2.59073 12.2552 2.50098 12.5 2.50098C12.7447 2.50098 12.981 2.59073 13.164 2.75324L22.164 10.7532C22.3521 10.932 22.4634 11.1768 22.4744 11.4361C22.4853 11.6953 22.3951 11.9487 22.2227 12.1426C22.0503 12.3366 21.8092 12.4559 21.5505 12.4754C21.2917 12.4949 21.0355 12.4131 20.836 12.2472L20.5 11.9502V19.5002C20.5 20.0307 20.2893 20.5394 19.9142 20.9145C19.5391 21.2895 19.0304 21.5002 18.5 21.5002H6.49999C5.96955 21.5002 5.46085 21.2895 5.08577 20.9145C4.7107 20.5394 4.49999 20.0307 4.49999 19.5002V11.9502L4.16399 12.2472C3.96445 12.4131 3.70824 12.4949 3.44949 12.4754C3.19074 12.4559 2.9497 12.3366 2.77731 12.1426C2.60492 11.9487 2.51466 11.6953 2.52561 11.4361C2.53656 11.1768 2.64786 10.932 2.83599 10.7532L11.836 2.75324ZM6.49999 10.1702V19.5002H9.49999V14.5002C9.49999 14.235 9.60534 13.9807 9.79288 13.7931C9.98042 13.6056 10.2348 13.5002 10.5 13.5002H14.5C14.7652 13.5002 15.0196 13.6056 15.2071 13.7931C15.3946 13.9807 15.5 14.235 15.5 14.5002V19.5002H18.5V10.1712L12.5 4.83824L6.49999 10.1702ZM13.5 19.5002V15.5002H11.5V19.5002H13.5Z" fill="#9299A9"/>
</svg>
